HIERARCHY
ROOT Bip001_Pelvis
{
  OFFSET 7.937 94.8971 -8.5489
  CHANNELS 6 Xposition Yposition Zposition Zrotation Xrotation Yrotation
  JOINT Bip001_Spine
  {
    OFFSET 1.44608e-005 10.4157 -0.0118244
    CHANNELS 3 Zrotation Xrotation Yrotation
    JOINT Bip001_L_Thigh
    {
      OFFSET 11.2582 -10.4157 0.0118432
      CHANNELS 3 Zrotation Xrotation Yrotation
      JOINT Bip001_L_Calf
      {
        OFFSET -0.720717 -44.8687 0.366937
        CHANNELS 3 Zrotation Xrotation Yrotation
        JOINT Bip001_L_Foot
        {
          OFFSET -0.664439 -41.3745 -3.62995
          CHANNELS 3 Zrotation Xrotation Yrotation
          JOINT Bip001_L_Toe0
          {
            OFFSET 0.0541047 -10.4146 13.4033
            CHANNELS 3 Zrotation Xrotation Yrotation
            End Site
            {
              OFFSET -1.04503e-005 0 7.70137
            }
          }
        }
      }
    }
    JOINT Bip001_R_Thigh
    {
      OFFSET -11.2582 -10.4156 0.0118122
      CHANNELS 3 Zrotation Xrotation Yrotation
      JOINT Bip001_R_Calf
      {
        OFFSET 0.72059 -44.8687 0.36676
        CHANNELS 3 Zrotation Xrotation Yrotation
        JOINT Bip001_R_Foot
        {
          OFFSET 0.664321 -41.3745 -3.62979
          CHANNELS 3 Zrotation Xrotation Yrotation
          JOINT Bip001_R_Toe0
          {
            OFFSET -0.05417 -10.4146 13.4033
            CHANNELS 3 Zrotation Xrotation Yrotation
            End Site
            {
              OFFSET -1.04873e-005 0 7.70137
            }
          }
        }
      }
    }
    JOINT Bip001_Spine1
    {
      OFFSET 1.90638e-005 14.8539 1.10727
      CHANNELS 3 Zrotation Xrotation Yrotation
      JOINT Bip001_Spine2
      {
        OFFSET 2.28934e-005 14.7848 -1.7233
        CHANNELS 3 Zrotation Xrotation Yrotation
        JOINT Bip001_Neck
        {
          OFFSET 2.24514e-005 15.6905 -0.498826
          CHANNELS 3 Zrotation Xrotation Yrotation
          JOINT Bip001_L_Clavicle
          {
            OFFSET 6.17691 -0.000591152 0.00852867
            CHANNELS 3 Zrotation Xrotation Yrotation
            JOINT Bip001_L_UpperArm
            {
              OFFSET 11.773 -0.0611878 0.00197697
              CHANNELS 3 Zrotation Xrotation Yrotation
              JOINT Bip001_L_Forearm
              {
                OFFSET 26.4515 0.0817568 -2.19579
                CHANNELS 3 Zrotation Xrotation Yrotation
                JOINT Bip001_L_Hand
                {
                  OFFSET 32.8677 0.156744 1.67112
                  CHANNELS 3 Zrotation Xrotation Yrotation
                  JOINT Bip001_L_Finger0
                  {
                    OFFSET 6.16268 -2.25226 6.01674
                    CHANNELS 3 Zrotation Xrotation Yrotation
                    End Site
                    {
                      OFFSET 4.30499 -1.46662 0.618148
                    }
                  }
                  JOINT Bip001_L_Finger1
                  {
                    OFFSET 11.2957 -0.718374 -0.201963
                    CHANNELS 3 Zrotation Xrotation Yrotation
                    End Site
                    {
                      OFFSET 6.31952 -0.405163 -0.0802303
                    }
                  }
                }
              }
            }
          }
          JOINT Bip001_R_Clavicle
          {
            OFFSET -6.17691 -0.000574027 0.00851165
            CHANNELS 3 Zrotation Xrotation Yrotation
            JOINT Bip001_R_UpperArm
            {
              OFFSET -11.773 -0.0611516 0.00194365
              CHANNELS 3 Zrotation Xrotation Yrotation
              JOINT Bip001_R_Forearm
              {
                OFFSET -26.4514 0.0822334 -2.19736
                CHANNELS 3 Zrotation Xrotation Yrotation
                JOINT Bip001_R_Hand
                {
                  OFFSET -32.8677 0.156817 1.67144
                  CHANNELS 3 Zrotation Xrotation Yrotation
                  JOINT Bip001_R_Finger0
                  {
                    OFFSET -6.1627 -2.25224 6.0167
                    CHANNELS 3 Zrotation Xrotation Yrotation
                    End Site
                    {
                      OFFSET -4.30499 -1.46662 0.618134
                    }
                  }
                  JOINT Bip001_R_Finger1
                  {
                    OFFSET -11.2958 -0.718344 -0.201994
                    CHANNELS 3 Zrotation Xrotation Yrotation
                    End Site
                    {
                      OFFSET -6.31952 -0.405146 -0.0802475
                    }
                  }
                }
              }
            }
          }
          JOINT Bip001_Head
          {
            OFFSET 1.11782e-005 11.4912 2.09908
            CHANNELS 3 Zrotation Xrotation Yrotation
            End Site
            {
              OFFSET 2.95144e-005 21.2823 -2.83069e-005
            }
          }
        }
      }
    }
  }
}
MOTION
Frames:	5
Frame Time:	0.04
12.0976 94.9823 -8.09654 -1.80309 5.97364 25.7839 -1.89806 -0.519085 2.94367 1.03113 -18.3814 1.90995 -0.519631 18.1556 -10.618 1.53149 -4.51346 -9.05997 0.587172 -10.3301 -1.28846 -8.53249 -2.35616 -11.3961 0.45149 11.9328 -6.59246 1.87853 -9.60978 -16.5751 2.18669 -11.8509 -0.873551 -3.7589 -1.13113 5.802 -3.75891 -1.13113 5.80202 -3.06223 -4.85372 -7.01451 -25.0252 8.20052 -7.63587 -52.031 38.0176 13.7811 20.0079 8.98586 -30.3169 -4.88659 0.453453 -1.41025 -4.77083e-015 -6.36111e-015 1.59028e-015 -1.59028e-015 -3.18056e-015 -0 -5.1679 4.61633 26.4515 5.64805 -18.9843 52.5231 -37.895 16.4004 24.8667 -27.0553 3.19342 -13.3113 -0 0 8.74652e-015 -0 0 4.37326e-015 -0.974083 -1.11043 -7.38137 
11.9306 94.9835 -8.09858 -2.0314 6.33288 26.898 -1.9351 -0.574746 3.06305 0.825819 -18.847 1.3075 -0.40781 17.993 -10.9298 1.40798 -4.25224 -9.41876 0.585039 -10.3297 -1.3062 -8.33763 -2.43236 -12.1699 0.353139 11.9112 -6.95435 1.98779 -9.7283 -16.7078 2.05997 -11.8352 -0.845425 -3.88588 -1.24899 6.0258 -3.88544 -1.24901 6.02582 -2.34444 -5.2933 -7.88919 -25.6939 8.19095 -6.9148 -52.2243 37.1401 14.9315 19.6702 8.60293 -30.8432 -5.10069 0.382987 -1.59732 7.95139e-016 -6.36111e-015 -1.59028e-015 8.82782e-032 -3.18056e-015 1.59028e-015 -4.89248 5.21304 25.3107 12.998 -23.2568 56.2019 -34.524 8.56387 30.1712 -20.9346 7.53038 -13.0449 -1.59028e-015 3.18055e-015 -1.59028e-015 1.59028e-015 0 -1.59028e-015 -1.88198 -0.650446 -7.82177 
11.8757 94.9886 -8.0055 -2.08076 5.95503 27.3508 -1.93323 -0.552222 3.03628 0.878331 -18.6574 1.16327 -0.111448 18.1382 -11.6694 1.29079 -4.3323 -9.14709 0.603988 -10.3164 -1.2063 -7.96864 -1.82428 -12.7518 0.236306 11.5254 -6.85066 1.9159 -9.59714 -16.6765 2.10863 -11.8729 -0.771009 -3.81083 -1.20202 5.99142 -3.81083 -1.20202 5.99142 -1.37857 -4.73474 -8.15936 -26.4577 7.5096 -7.1898 -53.1006 35.6944 16.7862 19.1586 7.89452 -31.0922 -4.57223 0.382076 -1.10528 1.59028e-015 -6.36111e-015 -1.59028e-015 -1.76556e-031 -6.36111e-015 -1.59028e-015 -7.18792 3.96798 23.1745 20.081 -26.1478 61.3382 -31.4594 12.1906 31.7846 -21.4139 7.60485 -12.3882 0 0 -1.59028e-015 3.18055e-015 -3.18056e-015 -1.59028e-015 -2.46937 -0.70204 -7.73937 
11.8731 95.0542 -7.96585 -1.86878 5.50716 27.0073 -1.93224 -0.510659 2.90113 0.780129 -17.9864 0.165025 0.0504876 17.7701 -11.1059 1.01143 -4.25847 -8.44295 0.622802 -10.3003 -1.10687 -7.87336 -1.27309 -13.004 0.159383 11.0982 -6.68126 1.79918 -9.28767 -16.1893 2.2385 -11.9337 -0.663405 -3.71551 -1.11339 5.74672 -3.71552 -1.11347 5.74672 -1.51999 -4.18893 -7.96977 -26.1803 6.91573 -6.94909 -54.1314 35.5992 18.2127 18.5143 7.05784 -30.412 -4.24914 0.295329 -0.671497 7.95139e-016 -3.18055e-015 -0 7.95139e-016 -3.18056e-015 -1.59028e-015 -7.52463 3.29364 22.8425 20.1157 -24.8615 60.4904 -38.4477 14.3056 34.6907 -17.5341 7.01506 -14.888 4.77083e-015 -6.36111e-015 6.36111e-015 1.59028e-015 -3.18056e-015 4.77083e-015 -2.09405 -0.686527 -7.68525 
11.875 95.0719 -7.99507 -1.64243 5.0816 25.8187 -1.89872 -0.478393 2.81861 1.06819 -17.4639 0.290091 -0.170288 17.8381 -10.5283 1.03031 -4.41427 -7.88235 0.637153 -10.2987 -1.03166 -7.95692 -1.21915 -12.2215 0.189446 11.158 -6.48285 1.79232 -9.15186 -15.9335 2.19459 -11.9367 -0.590817 -3.58686 -1.04298 5.59715 -3.58686 -1.04306 5.59713 -1.59483 -3.75303 -7.97097 -26.0456 6.33809 -6.52762 -54.8804 35.933 18.9654 17.6571 7.3748 -28.9051 -4.38317 0.242109 -0.740514 1.59028e-015 3.18055e-015 -1.59028e-015 1.59028e-015 -3.18056e-015 -3.18055e-015 -6.68962 3.10356 23.1197 18.6426 -23.9339 59.137 -39.8206 10.3502 38.4793 -17.7777 7.22301 -14.7976 -3.18055e-015 -3.18055e-015 -3.97569e-015 -1.76556e-031 -3.18056e-015 -3.18055e-015 -1.98283 -0.794202 -7.754 
